<svg width="435" height="383" viewBox="0 0 435 383" fill="none" xmlns="http://www.w3.org/2000/svg">
<g clip-path="url(#clip0_90_13)">
<path d="M162.748 30.4922L124.909 68.1946C119.757 67.6812 106.892 68.3659 96.6468 75.2125L81.7194 87.1989C69.3465 102.443 53.8716 139.659 90.955 166.57C105.024 174.399 139.149 184.763 163.103 163.586L186.357 142.384C189.662 138.497 204.937 123.221 239.606 93.2127C246.228 88.0622 263.476 77.1238 277.554 81.0297C281.185 82.0715 288.313 87.1952 289.11 93.9408C290.105 98.1668 289.871 100.447 288.744 104.434C286.755 108.868 285.414 113.824 274.177 120.436C266.524 124.671 265.674 123.241 255.786 131.301L184.263 202.348C174.189 213.837 142.433 234.007 95.9964 222.78C88.6908 221.858 67.3897 213.876 40.6302 189.327C26.0078 173.474 2.29638 129.453 24.4289 80.1952C33.4261 61.3311 63.1656 22.512 110.147 18.1489L159.117 19.859C161.265 20.4343 164.998 23.3664 162.748 30.4922Z" fill="#FCA311"/>
<path d="M323.097 7.93774C296.822 5.82058 281.842 5.08136 254.139 5.52968C249.849 4.97624 230.904 7.70542 214.709 17.1607C210.792 19.8782 179.343 35.521 127.846 97.6783C121.966 108.48 116.241 131.994 140.389 139.642C144.001 141.269 158.122 136.158 185.706 102.701C197.36 88.9323 226.9 60.6126 251.825 57.4806C267.721 57.8106 279.181 58.3399 303.276 59.7776C316.642 59.0769 348.167 66.5484 367.34 102.039C373.779 113.437 383.375 141.423 370.243 162.177L367.245 162.072C361.072 157.354 344.258 146.961 326.381 143.135C316.404 142.286 293.814 141.597 283.267 145.632C279.092 145.819 261.072 156.564 222.401 198.039C206.379 217.492 168.339 256.188 144.354 255.35C139.678 255.521 129.144 258.221 124.412 267.662C121.692 273.904 119.674 288.709 133.359 297.993C141.386 302.109 165.971 303.934 200.086 278.309L273.66 205.833C289.426 193.709 329.765 180.876 364.994 226.533C378.526 225.838 409.58 213.381 425.534 169.111C431.003 155.794 436.333 117.757 413.911 72.1462C405.957 56.359 376.659 21.4153 323.097 7.93774Z" fill="#FCA311"/>
<path d="M197.922 312.271C181.743 321.879 138.575 335.514 95.3273 313.191C79.742 303.342 55.2299 282.268 58.2768 242.354C48.2908 237.003 26.0216 223.317 16.8322 211.389L14.8335 211.319L13.2995 212.266C10.4098 213.833 4.71364 223.173 5.04741 248C5.18647 258.345 7.21338 283.397 14.2085 300.852C24.2791 322.884 58.5662 368.742 115.15 375.921C128.544 376.84 136.224 377.072 150.129 377.142C163.609 377.946 196.672 373.864 221.081 351.102L301.913 271.375C304.705 267.804 308.783 258.007 302.75 247.39C297.837 240.047 284.272 229.234 269.323 244.721C249.435 265.04 207.312 306.995 197.922 312.271Z" fill="#FCA311"/>
<path d="M320.832 310.647L299.241 312.895L297.741 312.842L264.644 343.706C258.467 348.66 249.681 359.593 263.946 363.694L318.948 364.614C335.145 364.012 374.527 351.846 402.474 307.994C408.849 297.377 419.689 267.771 412.053 234.284L409.659 231.198C403.056 238.806 384.129 254.522 361.246 256.524L362.175 258.558C363.445 269.942 356.955 296.299 320.832 310.647Z" fill="#FCA311"/>
</g>
<defs>
<clipPath id="clip0_90_13">
<rect width="434.32" height="382.656" fill="white" transform="translate(0.536499 0.0992432)"/>
</clipPath>
</defs>
</svg>
